<!DOCTYPE svg PUBLIC "-//W3C//DTD SVG 1.1//EN" "http://www.w3.org/Graphics/SVG/1.1/DTD/svg11.dtd">
<!-- Uploaded to: SVG Repo, www.svgrepo.com, Transformed by: SVG Repo Mixer Tools -->
<svg version="1.1" id="_x32_" xmlns="http://www.w3.org/2000/svg" xmlns:xlink="http://www.w3.org/1999/xlink" width="800px" height="800px" viewBox="-51.2 -51.2 614.40 614.40" xml:space="preserve" fill="#000000" stroke="#000000">
<g id="SVGRepo_bgCarrier" stroke-width="0">
<path transform="translate(-51.2, -51.2), scale(19.2)" d="M16,27.20100683039602C18.171513072030955,27.29382203531207,20.128314956054673,26.313391634514446,22.19446549188476,25.638776449720947C25.002525643680855,24.721921658473068,29.07074938903954,25.216620776744662,30.30172084134123,22.5313770619289C31.53208454985196,19.847459080696837,27.973099826815425,17.254946234905532,27.36195817806538,14.366397036715526C26.80986160066211,11.756923227749345,28.822896441827172,8.406490906420686,26.918216929261202,6.5393111762199965C24.96990119428227,4.629354343911325,21.499432213134607,6.948139141679858,18.911962407490776,6.082766788683442C16.156261737533843,5.161130073266367,14.635657625918553,1.5240449916340106,11.730630746758212,1.459863616128299C8.775298655560864,1.3945708368945184,5.396873841904852,3.0636376258326283,4.179264243569994,5.757274160765244C2.92768325190331,8.526063344253123,6.158925533672131,11.516760694831298,5.819669348553397,14.53628942663027C5.4982101825633185,17.397416888366788,1.2397714314634782,19.578299923880152,2.3268801288326255,22.244304617763163C3.396158451711393,24.866582440358982,7.474379168881585,24.1582574112539,10.136744804418317,25.123403168831164C12.126394747406025,25.84467983192605,13.885578263372231,27.110631833675185,16,27.20100683039602" fill="#ffffff" strokewidth="0"/>
</g>
<g id="SVGRepo_tracerCarrier" stroke-linecap="round" stroke-linejoin="round"/>
<g id="SVGRepo_iconCarrier"> <style type="text/css">  .st0{fill:#000000;}  </style> <g> <rect x="136" y="400" class="st0" width="48" height="48"/> <rect x="136" y="320" class="st0" width="48" height="48"/> <rect x="136" y="240" class="st0" width="48" height="48"/> <rect x="232" y="400" class="st0" width="48" height="48"/> <rect x="232" y="320" class="st0" width="48" height="48"/> <rect x="232" y="240" class="st0" width="48" height="48"/> <rect x="328" y="320" class="st0" width="48" height="128"/> <rect x="328" y="240" class="st0" width="48" height="48"/> <path class="st0" d="M394.656,0H117.359C92.313,0,72,20.313,72,45.344v421.313C72,491.688,92.313,512,117.359,512h277.297 C419.703,512,440,491.688,440,466.656V45.344C440,20.313,419.703,0,394.656,0z M136,72h240v80H136V72z M416,466.656 c0,11.766-9.578,21.344-21.344,21.344H117.359C105.594,488,96,478.422,96,466.656V197.328h320V466.656z"/> </g> </g>
</svg>